<?xml version="1.0" encoding="utf-8" ?>
<svg xmlns="http://www.w3.org/2000/svg" xmlns:xlink="http://www.w3.org/1999/xlink" width="834" height="318">
	<path fill="#0995FE" d="M566.025 73.4485C567.236 73.3705 568.385 73.2797 569.587 73.4942L569.408 81.0135L576.713 81.0249L575.977 87.5167L569.682 87.5078L569.739 100.616C569.755 102.292 569.515 104.709 570.64 106.068C572.313 106.888 574.305 106.178 576.041 105.814C577.177 107.723 578.086 109.535 578.818 111.635L575.068 113.31C573.449 113.7 571.574 113.902 569.914 113.929C567.672 113.965 564.921 113.263 563.322 111.618C558.292 106.448 560.25 94.3419 560.27 87.6722C558.885 87.5651 557.085 87.6408 555.869 86.9309L555.523 81.4863C556.1 80.9685 559.535 81.0773 560.48 81.0371L560.272 74.3207L566.025 73.4485Z"/>
	<path fill="#0995FE" d="M473.552 70.16C478.516 69.3569 483.515 71.8437 487.463 74.5038L483.074 79.6945C481.997 79.8816 479.682 78.0593 478.477 77.6239C476.61 76.9493 473.817 77.137 472.062 77.9973C469.804 79.1039 468.205 81.0479 467.444 83.4293C465.839 88.4517 465.271 96.5089 467.808 101.292C469.017 103.573 470.865 105.556 473.397 106.285C476.916 107.3 480.69 104.773 483.651 103.123L485.729 105.853L487.962 108.794C484.688 111.104 481.887 112.923 477.874 113.545C473.138 114.278 467.991 113.572 464.063 110.667C459.751 107.48 457.277 102.443 456.52 97.197C455.521 90.2794 456.349 82.5652 460.678 76.8679C463.768 72.8003 468.637 70.834 473.552 70.16Z"/>
	<path fill="#0995FE" d="M534.971 80.3427C539.077 80.1688 544.67 79.9525 547.995 82.8028C553.822 87.7987 550.437 98.194 551.478 104.862C551.716 106.386 553.425 107.072 553.479 108.422C553.534 109.828 552.183 112.344 551.28 113.397C550.783 113.494 550.278 113.572 549.77 113.539C547.434 113.389 545.602 111.279 544.124 109.669L542.39 110.982C538.219 114.086 535.915 114.202 530.827 113.455L529.85 113.045C527.86 112.074 525.597 110.16 524.898 108.005C524.134 105.654 524.041 101.338 525.217 99.1314C528.967 92.0928 536.503 94.5853 542.817 92.6947C542.343 90.9486 541.807 89.3748 541.016 87.7452C537.466 86.0297 531.953 87.6336 528.385 88.5589L526.176 82.2625C529.077 81.344 531.958 80.7522 534.971 80.3427ZM537.61 98.2033C536.03 98.9757 534.175 99.8423 533.599 101.662C533.129 103.152 533.857 104.877 534.485 106.205C535.568 106.992 536.617 107.413 537.989 107.215L538.15 107.178C539.883 106.583 540.996 106.199 541.835 104.474C542.679 102.74 542.374 100.501 542.3 98.6266C541.178 97.8101 538.971 98.2123 537.61 98.2033Z"/>
	<path fill="#0995FE" d="M496.932 67.7536L501.328 67.5167C501.56 72.7178 501.794 78.7866 500.991 83.9176C504.072 82.0302 506.82 80.0855 510.582 79.993C512.841 79.9374 515.278 81.0423 516.874 82.6096C520.483 86.1553 519.175 107.03 519.24 112.871L509.819 113L509.837 96.32C509.859 94.0899 509.952 91.5511 509.423 89.3739C509.104 88.0605 508.683 87.7355 507.608 87.027C505.252 87.0856 504.373 87.4418 502.707 89.0884C502.406 89.3862 501.452 90.1646 501.308 90.517C500.939 91.4207 501.337 94.2484 501.345 95.4238L501.325 113.06L491.827 112.957L491.825 68.3685C493.468 67.994 495.254 67.9283 496.932 67.7536Z"/>
	<path fill="#0995FE" d="M221.583 12.0115L222.517 11.8903C226.15 14.9415 228.589 20.6004 231.024 24.6087L239.259 37.5721L268.263 82.9618C251.991 76.6141 236.487 73.9253 219.111 73.3144C213.259 73.6079 207.163 73.8852 201.412 75.0426C191.763 76.9846 182.824 80.9588 173.604 84.2456L221.583 12.0115Z"/>
	<path fill="#0995FE" d="M554.858 159.123L580.015 159.09C580.467 164.342 580.23 169.749 580.24 175.024L580.076 205.691C580.038 210.963 579.352 217.455 580.475 222.58C580.892 224.482 582.118 225.806 583.408 227.172C585.24 227.878 587.181 228.411 589.163 228.278C592.668 228.041 596.326 225.77 598.612 223.21C599.599 222.106 601.937 219.485 602.23 218.046C602.531 216.566 602.332 214.673 602.334 213.134L602.315 202.835L601.922 159.126L627.179 159.254L627.224 185.975L627.188 244.102L605.513 244.119C605.157 240.93 605.152 236.711 604.162 233.692L601.965 236.096C595.155 243.447 588.753 246.282 578.795 246.647C572.558 246.875 566.873 245.409 562.241 241.067C558.906 237.94 556.872 233.645 555.931 229.212C554.101 220.594 555.14 211.115 555.171 202.351L554.858 159.123Z"/>
	<path fill="#0995FE" d="M669.267 123.128C670.277 123.012 671.108 122.959 672.109 123.169L672.227 168.215C674.311 167.031 676.134 164.98 677.994 163.455C683.665 158.8 690.146 156.534 697.453 156.495C703.301 156.464 709.468 158.752 713.656 162.902C716.732 165.95 718.78 170.605 719.605 174.809C721.253 183.208 720.332 192.598 720.314 201.142L720.321 244.432L695.401 244.495L695.485 190.047C695.555 186.193 695.508 180.097 692.65 177.163C691.176 175.65 689.749 174.961 687.613 174.943C683.23 174.906 679.22 177.627 676.257 180.608C675.095 181.778 673.205 183.66 672.53 185.168C672.135 186.05 672.337 187.911 672.334 188.891L672.317 198.624L672.379 244.396L647.076 244.439L647.041 125.38L669.267 123.128Z"/>
	<path fill="#0995FE" d="M774.049 156.516C784.894 156.025 796.331 159.092 804.502 166.387C812.572 173.591 816.967 185.526 817.516 196.192C818.208 209.621 815.984 224.056 806.612 234.388C799.613 242.105 789.648 246.187 779.377 246.688C768.357 246.814 758.192 245.656 749.378 238.264C739.824 230.254 735.894 218.379 734.821 206.326C733.693 193.651 736.916 179.706 745.188 169.834C752.897 160.633 762.511 157.532 774.049 156.516ZM776.261 174.778C771.904 175.526 767.884 176.823 765.222 180.6C759.481 188.743 759.865 203.272 761.575 212.73C762.452 217.583 763.729 222.918 768.042 225.905C770.839 227.843 773.781 228.43 777.146 228.493C780.873 227.974 784.467 226.324 786.768 223.245C792.326 215.809 792.699 201.753 791.305 192.883C790.469 187.558 789.023 180.852 784.35 177.484C781.93 175.74 779.211 174.973 776.261 174.778Z"/>
	<path fill="#0995FE" d="M457.444 133.158L478.157 133.102C492.663 133.089 509.151 132.355 522.538 138.807C528.622 141.739 532.959 145.767 535.22 152.28C537.38 158.498 536.957 166.421 534.041 172.333C530.7 179.109 523.365 182.419 516.63 184.74C524.845 187.736 533.246 189.665 538.026 197.832C542.276 205.093 541.779 214.671 539.709 222.547C538.231 226.608 536.476 230.024 533.263 232.997C520.225 245.059 498.806 243.886 482.279 243.911L457.615 243.719L457.444 133.158ZM483.46 194.42L483.418 225.087C492.018 225.277 502.918 225.996 510.281 220.89C513.205 217.91 514.617 214.024 514.569 209.847C514.526 206.085 513.029 201.551 510.284 198.914C504.503 193.362 494.064 194.027 486.64 194.222L483.46 194.42ZM483.494 151.435L483.457 177.077C490.543 177.218 500.786 178.273 506.538 173.217C509.707 169.147 510.509 166.464 509.837 161.269C509.496 158.63 508.295 156.399 506.166 154.79C500.413 150.444 490.335 151.121 483.494 151.435Z"/>
	<path fill="#0995FE" d="M218.707 296.302C229.719 296.697 240.964 294.893 251.169 290.699C271.675 282.271 288.68 262.828 294.966 241.615C296.124 237.707 296.345 230.388 298.948 227.346C300.906 225.058 305.495 224.006 308.224 222.592C319.961 216.512 330.475 204.89 335.539 192.656C341.428 178.426 342.239 160.83 337.881 146.089C336.33 140.842 333.94 135.823 331.839 130.778C337.353 127.145 344.33 125.549 350.526 123.474C374.834 115.334 401.454 98.9403 414.702 76.3389C416.978 72.4547 418.734 68.5258 420.3 64.3123C421.126 62.0872 421.696 59.5523 422.743 57.4504C424.272 61.2144 425.845 64.9733 426.566 68.9942C428.521 79.9059 427.899 91.6044 422.778 101.609C420.831 105.411 418.081 108.944 415.635 112.438C419.248 111.213 423.053 109.155 426.008 106.745C428.901 104.384 431.335 101.593 434.448 99.4874C434.659 105.221 434.82 111.193 433.459 116.804C430.04 130.901 421.349 143.726 408.651 150.98C403.92 153.683 398.787 155.311 394.058 158.18C402.205 157.762 411.642 155.616 418.744 151.56C422.043 149.677 424.996 147.283 428.353 145.469C426.081 155.273 423.544 164.774 418.06 173.371C413.736 180.149 404.846 187.026 397.001 189.231C391.246 190.849 385.282 191.287 379.451 192.574C381.993 193.157 384.67 193.932 387.272 194.152C397.526 195.019 407.118 192.611 416.82 189.652C407.918 200.296 399.633 213.18 386.952 219.602C375.535 225.382 362.761 225.402 350.814 221.38C346.767 220.018 342.939 218.09 338.861 216.753C345.475 222.729 352.913 228.173 361.356 231.269C366.37 233.108 371.427 233.931 376.697 234.522C369.328 240.749 361.1 246.589 351.573 248.859C341.65 251.223 332.067 248.196 323.895 242.479C320.439 240.062 317.333 237.221 313.735 235.007C318.58 244.454 325.382 250.17 334.134 255.843C329.139 257.9 322.678 260.085 317.28 260.605C312.396 261.075 307.142 260.512 302.35 259.581L306.6 239.066C302.897 244.82 301.313 250.799 298.438 256.86C291.162 272.2 279.055 285.068 264.448 293.667C247.225 303.808 222.137 308.24 202.689 303.164C179.387 297.082 158.583 280.304 147.582 258.934C144.514 252.976 143.403 246.243 140.053 240.491L140.983 258.506L140.559 258.689C135.745 260.631 130.835 260.698 125.728 260.694C120.215 260.689 114.866 260.503 109.518 259.03C111.854 256.961 114.644 255.442 117.068 253.479C125.389 246.739 130.541 237.907 132.929 227.624L127.428 235.324C121.617 242.872 111.884 248.473 102.422 249.556C88.6044 251.139 76.2052 242.97 65.8983 234.798C71.1719 233.436 76.4634 232.233 81.4962 230.097C89.3378 226.768 96.1943 221.481 102.198 215.512C101.059 215.326 97.8745 217.093 96.7271 217.649C92.578 219.657 88.4248 221.924 83.9343 223.091C79.6416 224.206 73.5644 224.404 69.1704 223.889C49.8237 221.623 39.8557 205.082 28.8468 191.229C32.3818 192.11 36.0031 193.326 39.5893 193.875C44.1388 194.57 49.0239 194.3 53.6094 194.201C57.5436 194.115 61.6225 194.358 65.3599 192.976L65.5793 192.388C63.9446 189.88 56.7154 190.261 53.9575 190.037C51.7101 189.854 49.4012 189.54 47.2045 189.046C43.6034 188.236 39.8432 186.635 36.7293 184.65C22.55 175.608 17.6967 160.026 14.2079 144.452C17.5642 147.022 21.073 149.628 24.8161 151.608C35.4841 157.252 48.5813 159.728 60.628 159.313C56.4799 157.814 52.6257 157.343 48.3899 156.35C39.7791 154.333 31.5386 149.836 25.2626 143.605C17.5758 135.974 11.5691 126.643 9.93335 115.787C9.1796 110.785 9.34768 105.518 9.3342 100.469C12.7579 102.008 15.572 104.626 18.5581 106.855C22.6084 109.878 26.6402 112.26 31.3169 114.198C27.6073 110.038 23.1021 106.167 20.571 101.144C13.6113 87.331 16.364 71.2586 20.9244 57.2519C22.215 61.6278 23.8117 66.1211 25.9494 70.1609C35.6456 88.4855 50.6879 101.426 68.4029 111.795C72.3536 114.107 76.2987 116.594 80.4816 118.456C90.5514 122.938 101.257 126.058 111.769 129.307C112.012 130.59 109.684 135.116 109.149 136.56C102.612 154.214 100.877 171.866 108.003 189.606C113.214 202.579 124.292 214.811 136.529 221.621C138.68 222.818 141.013 223.522 143.266 224.494C144.356 224.964 146.752 226.02 147.501 226.921C148.349 227.942 148.44 233.587 148.763 235.176C149.76 240.092 151.297 245.008 153.159 249.661C159.841 266.357 175.115 283.001 191.831 290.061C197.309 292.374 203.172 294.7 209.015 295.837C209.964 295.983 211.648 295.847 212.419 296.274C213.201 296.707 217.708 296.516 218.707 296.302Z"/>
	<path fill="#0995FE" d="M157.099 247.318L151.917 222.147C145.404 220.351 138.767 218.087 133.068 214.386C126.039 209.821 119.906 202.169 115.795 194.899C107.977 181.077 106.206 162.527 110.504 147.231C112.493 140.151 115.357 132.423 119.521 126.32C121.18 123.888 124.149 121.134 125.315 118.578C109.049 105.185 98.9736 87.3415 94.807 66.8046L91.3319 45.6235C95.0992 50.2969 98.6581 54.9186 103.328 58.7518C110.368 64.5303 118.39 68.831 126.49 72.9008L153.577 85.6615C158.671 87.9786 163.747 90.8459 168.966 92.8228C171.713 90.8386 174.479 88.6923 177.463 87.0781C197 76.5076 220.506 75.6679 241.967 79.1415C248.642 80.2219 255.353 81.7752 261.603 84.3675C263.731 85.2499 265.853 86.182 267.848 87.338C270.218 88.7114 272.474 90.3321 274.949 91.5102C275.284 91.6696 276.235 92.224 276.56 92.2332C277.04 92.2468 278.267 91.6306 278.742 91.4431C281.808 90.2321 284.714 88.4977 287.727 87.1365L326.207 69.8176C327.717 69.057 329.121 68.0872 330.491 67.1028C335.294 63.6529 339.927 59.6964 343.888 55.2983C346.459 52.4442 348.654 49.201 351.594 46.7056C350.779 54.303 350.262 62.0809 348.547 69.5433C345.878 81.1588 340.658 92.4045 334.028 102.275C331.302 106.333 328.063 110.695 324.265 113.786L317.499 118.72C329.941 132.673 336.849 150.125 335.769 168.925C334.872 184.546 327.741 200.947 315.958 211.454C309.342 217.354 301.609 221.609 293.301 224.623C292.394 224.952 292.418 224.834 292.361 225.857C292.238 228.047 292.493 230.251 292.261 232.446C291.643 238.298 289.393 244.198 287.405 249.702C286.302 253.993 284.115 257.394 281.62 261.015C275.209 270.318 267.694 277.324 257.909 283.109C248.803 288.494 235.22 293.911 224.381 293.168C222.789 293.059 220.233 294.483 219.088 295.557C218.854 295.776 218.774 295.999 218.707 296.302C217.708 296.516 213.201 296.707 212.419 296.274C211.648 295.847 209.964 295.983 209.015 295.837L209.808 295.387C209.708 294.53 209.573 294.049 209.075 293.343L208.943 293.163L209.136 292.348C207.321 290.7 201.664 290.277 199.136 289.52C195.032 288.29 191.102 286.418 187.418 284.246C174.075 276.378 161.05 262.576 157.099 247.318ZM100.957 64.83C103.436 72.2428 105.368 80.0808 108.585 87.2006C115.434 102.361 129.562 113.75 144.113 121.018L168.202 132.013C172.827 134.026 177.623 135.888 182.07 138.269C194.973 145.181 207.046 156.206 214.56 168.816C217.724 174.126 219.389 179.905 222.156 185.371C224.117 181.706 225.391 177.826 227.161 174.084C229.391 169.37 232.265 164.867 235.521 160.789C246.177 147.441 261.485 138.55 276.798 131.554C296.611 122.502 318.829 116.05 330.682 96.1439C333.86 90.3075 336.656 84.3917 338.853 78.1101C340.35 73.83 341.425 69.1226 343.361 65.0371C339.181 68.7532 335.081 72.5664 330.276 75.4738C323.485 79.5822 315.731 82.4922 308.444 85.601L266.854 103.767C254.264 109.739 239.093 116.854 230.103 127.872C226.161 132.705 224.562 138.187 221.979 143.728C219.363 137.203 216.514 131.231 211.922 125.815C205.413 118.136 195.925 112.961 187.022 108.574L161.058 96.9013C144.937 90.0013 128.463 83.6518 113.531 74.307C109.068 71.5137 105.382 67.7003 100.957 64.83ZM134.434 123.562C131.204 128.221 127.988 132.899 125.47 137.992C119.702 149.663 117.963 161.971 120.264 174.737C122.503 187.156 130.531 198.5 140.799 205.646C150.225 212.205 163.135 213.571 174.245 211.574C179.618 210.608 185.67 207.846 189.248 203.633C194.488 197.539 198.148 190.253 203.206 184.011C205.763 180.854 208.947 178.155 212.051 175.549C205.329 166.886 198.701 158.287 189.918 151.548C186.737 149.107 182.952 147.416 179.429 145.528L155.195 133.487C148.152 130.311 141.129 127.462 134.434 123.562ZM307.742 125.075L285.608 135.108C270.56 141.717 256.897 147.241 244.977 159.089C240.099 163.938 236.559 169.795 231.98 174.868C235.509 177.922 239.13 180.889 241.92 184.666C246.942 191.464 249.799 199.608 256.538 205.047C266.732 211.514 277.426 214.617 289.488 211.929C299.664 209.661 309.036 203.62 314.624 194.789C322.549 182.266 325.612 166.499 322.25 152.002C319.807 141.466 314.961 133.01 307.742 125.075ZM250.634 244.657C249.911 240.77 249.924 236.715 249.807 232.773C249.715 229.656 249.43 226.362 249.773 223.26L250.648 222.983L251.945 223.663C253.034 225.315 253.149 227.183 253.316 229.099C253.745 234.047 253.249 238.859 252.886 243.792C253.572 243.512 254.538 243.502 255.275 243.401C262.423 242.42 272.509 241.524 277.217 235.247C280.25 231.204 279.541 226.923 278.873 222.224C273.876 220.574 268.624 219.74 263.554 218.327C256.2 216.277 249.728 212.644 243.606 208.16L222.524 239.618L200.605 206.605L200.541 206.735C197.812 212.18 188.108 216.682 182.649 218.44C177.021 220.253 171.376 219.771 165.81 221.084C165.301 224.5 164.109 229.239 165.211 232.521C166.475 236.285 168.723 238.674 172.274 240.476C177.984 243.372 185.485 244.069 191.831 244.57C191.27 241.113 190.137 226.412 192.007 223.621C193.093 223.196 193.766 222.983 194.917 223.265C195.276 226.177 195.144 229.193 195.137 232.124C195.126 236.697 195.179 240.872 193.991 245.333L207.619 252.193L208.074 247.193C213.734 251.739 217.175 257.682 221.947 263.006L236.301 246.833C236.381 248.165 236.27 249.995 236.802 251.213C240.312 249.928 243.572 248.229 246.94 246.63C248.052 246.102 249.827 245.554 250.634 244.657ZM184.505 99.8786C188.881 96.3799 194.285 94.2778 199.609 92.667C203.077 91.6178 207.087 90.522 210.691 90.1332C214.348 89.7386 218.227 89.9457 221.907 89.9534C231.591 89.9737 241.543 91.1033 250.695 94.4653C254.122 95.7242 257.418 97.6273 260.634 99.3559L265.35 98.0944C244.501 87.794 220.398 82.5815 197.809 90.2368L179.801 98.1203C181.215 98.7055 182.998 99.7167 184.505 99.8786Z"/>
	<path fill="#FEAE00" d="M200.605 206.605C199.947 200.014 202.994 194.048 207.075 189.036C209.25 186.364 211.988 184.232 214.988 182.556C218.071 187.821 219.665 193.691 222.17 199.221L229.468 182.319C236.011 186.906 242.148 193.17 243.602 201.341C243.985 203.495 244.143 206.017 243.606 208.16L222.524 239.618L200.605 206.605Z"/>
	<path fill="#42CDF1" d="M184.505 99.8786C188.881 96.3799 194.285 94.2778 199.609 92.667C203.077 91.6178 207.087 90.522 210.691 90.1332C214.348 89.7386 218.227 89.9457 221.907 89.9534C231.591 89.9737 241.543 91.1033 250.695 94.4653C254.122 95.7242 257.418 97.6273 260.634 99.3559C249.96 106.602 238.296 112.798 229.807 122.772C226.712 126.407 224.272 130.651 221.861 134.758C221.138 134.425 219.759 131.404 219.252 130.597C217.074 127.126 214.795 123.537 211.965 120.557C204.238 112.422 194.135 105.63 184.505 99.8786Z"/>
	<path fill="#0995FE" d="M178.008 227.405C178.53 227.371 179.066 227.363 179.583 227.458C180.543 227.635 181.611 228.438 182.133 229.252C182.696 230.128 182.915 231.531 182.654 232.539C182.218 234.223 180.765 235.069 179.383 235.917C178.808 236.203 178.18 236.145 177.551 236.152C176.482 235.274 175.698 234.431 175.149 233.143C174.66 231.996 174.482 230.792 175.009 229.625C175.607 228.302 176.718 227.873 178.008 227.405Z"/>
	<path fill="#0995FE" d="M263.102 227.812C263.846 227.62 264.745 227.507 265.512 227.555C266.523 227.618 267.643 228.265 268.261 229.057C268.736 229.664 269.116 230.619 269.038 231.382C268.816 233.551 267.582 234.315 266.006 235.599L264.086 236.003C263.272 235.66 262.59 235.3 261.976 234.649C260.719 233.317 260.702 232.007 260.764 230.255C261.295 228.942 261.882 228.497 263.102 227.812Z"/>
	<path fill="#42CDF1" d="M157.099 247.318L157.18 247.174C158.801 244.246 158.391 238.779 158.128 235.409C160.101 237.936 162.096 240.642 164.646 242.624C172.671 248.859 183.743 247.722 192.969 251.002C204.837 255.222 213.544 262.449 222.299 271.217C231.215 259.953 244.732 250.677 259.046 248.313C265.576 247.234 271.869 247.113 277.651 243.433C280.979 241.315 283.413 237.824 285.835 234.781C285.926 239.25 285.508 244.52 286.49 248.855L287.405 249.702C286.302 253.993 284.115 257.394 281.62 261.015C275.209 270.318 267.694 277.324 257.909 283.109C248.803 288.494 235.22 293.911 224.381 293.168C222.789 293.059 220.233 294.483 219.088 295.557C218.854 295.776 218.774 295.999 218.707 296.302C217.708 296.516 213.201 296.707 212.419 296.274C211.648 295.847 209.964 295.983 209.015 295.837L209.808 295.387C209.708 294.53 209.573 294.049 209.075 293.343L208.943 293.163L209.136 292.348C207.321 290.7 201.664 290.277 199.136 289.52C195.032 288.29 191.102 286.418 187.418 284.246C174.075 276.378 161.05 262.576 157.099 247.318Z"/>
	<path fill="#0101EE" d="M279.523 143.032C285.143 142.169 292.58 144.102 297.275 147.366C302.139 150.747 305.367 156.03 306.435 161.835C307.678 168.593 306.453 176.406 302.51 182.106C298.717 187.59 291.576 191.594 285.113 192.749C279.756 193.466 273.125 192.254 268.694 189.044C263.231 185.087 258.581 179.086 257.563 172.249C256.525 165.278 258.343 157.479 262.558 151.808C266.528 146.466 273.166 143.974 279.523 143.032ZM287.574 145.971C283.665 147.135 279.775 149.209 277.768 152.892C276.368 155.461 276.154 158.511 277.003 161.291C277.939 164.356 280.991 167.922 283.84 169.415C285.666 170.373 287.6 170.69 289.639 170.695C293.687 169.219 298.072 166.843 299.995 162.751C301.142 160.312 301.004 157.01 300.07 154.529C298.806 151.17 295.613 148.435 292.389 147.011C290.953 146.377 289.154 145.763 287.574 145.971Z"/>
	<path fill="#0101EE" d="M161.914 143.006C167.153 142.7 173.07 143.539 177.803 145.948C182.541 148.359 185.97 153.757 187.571 158.695C189.593 164.935 189.292 171.797 186.222 177.681C182.35 185.1 175.524 188.313 167.926 190.699C161.032 191.539 155.525 190.422 149.668 186.599C144.883 183.475 141.749 178.22 140.641 172.659C139.316 166.012 140.556 158.344 144.393 152.72C148.612 146.533 154.838 144.307 161.914 143.006ZM171.316 146.974C167.343 148.394 163.105 150.16 161.141 154.203C160.059 156.429 159.497 159.755 160.359 162.151C161.508 165.344 165.488 169.55 168.609 170.846C169.992 171.42 171.473 171.386 172.945 171.378C176.701 169.708 181.56 167.762 183.19 163.654C184.296 160.865 184.285 157.929 183.048 155.189C181.527 151.817 178.284 149.171 174.873 147.936L171.316 146.974Z"/>
</svg>
